<svg xmlns="http://www.w3.org/2000/svg" xmlns:xlink="http://www.w3.org/1999/xlink" width="500" zoomAndPan="magnify" viewBox="0 0 375 374.999991" height="500" preserveAspectRatio="xMidYMid meet" version="1.0"><defs><clipPath id="id1"><path d="M 124 292 L 251 292 L 251 362.722656 L 124 362.722656 Z M 124 292 " clip-rule="nonzero"/></clipPath></defs><path fill="#1e90ff" d="M 187.792969 76.296875 C 164.371094 76.296875 141.597656 78.996094 120.496094 83.945312 C 117.316406 95.09375 114.621094 107.070312 112.5625 119.792969 L 263.039062 119.792969 C 260.976562 107.070312 258.285156 95.09375 255.109375 83.945312 C 233.992188 78.996094 211.21875 76.296875 187.792969 76.296875 Z M 187.792969 76.296875 " fill-opacity="1" fill-rule="nonzero"/><path fill="#1e90ff" d="M 106.304688 87.65625 C 80.851562 95.144531 58.445312 106.09375 41.25 119.792969 L 99.679688 119.792969 C 101.441406 108.507812 103.6875 97.796875 106.304688 87.65625 Z M 106.304688 87.65625 " fill-opacity="1" fill-rule="nonzero"/><path fill="#1e90ff" d="M 22.128906 119.792969 C 43.117188 98.9375 74.222656 82.875 110.367188 73.347656 C 120.027344 42.652344 133.632812 18.632812 149.605469 3.808594 C 88.722656 16.683594 38.324219 59.800781 16.839844 119.792969 Z M 22.128906 119.792969 " fill-opacity="1" fill-rule="nonzero"/><path fill="#1e90ff" d="M 124.925781 69.875 C 144.902344 65.730469 166.113281 63.515625 187.792969 63.515625 C 209.476562 63.515625 230.6875 65.734375 250.675781 69.886719 C 235.6875 26.820312 212.53125 -0.277344 187.792969 -0.277344 C 163.078125 -0.277344 139.933594 26.820312 124.925781 69.875 Z M 124.925781 69.875 " fill-opacity="1" fill-rule="nonzero"/><path fill="#1e90ff" d="M 225.988281 3.808594 C 241.976562 18.632812 255.585938 42.652344 265.242188 73.351562 C 301.40625 82.878906 332.507812 98.9375 353.492188 119.792969 L 358.765625 119.792969 C 337.28125 59.800781 286.878906 16.683594 225.988281 3.808594 Z M 225.988281 3.808594 " fill-opacity="1" fill-rule="nonzero"/><path fill="#1e90ff" d="M 334.339844 119.792969 C 317.15625 106.09375 294.753906 95.144531 269.296875 87.652344 C 271.910156 97.792969 274.152344 108.511719 275.917969 119.792969 Z M 334.339844 119.792969 " fill-opacity="1" fill-rule="nonzero"/><path fill="#1e90ff" d="M 0.570312 132.574219 L 0.570312 229.875 L 375.015625 229.875 L 375.015625 132.574219 Z M 134.273438 157.757812 L 117.355469 202.394531 C 115.746094 206.855469 116.625 206.324219 111.667969 206.324219 L 108.257812 206.324219 C 103.796875 206.324219 103.738281 206.855469 102.402344 202.527344 L 94.839844 178.273438 C 94.292969 176.464844 93.75 174.6875 93.273438 172.875 C 92.792969 174.730469 92.242188 176.570312 91.664062 178.390625 L 83.355469 204.046875 C 82.441406 206.878906 82.675781 206.324219 79.609375 206.324219 L 74.660156 206.324219 C 69.960938 206.324219 70.914062 206.421875 69.003906 201.644531 L 51.941406 154.792969 C 51.199219 152.773438 52.464844 152.644531 54.65625 152.644531 L 63.539062 152.644531 C 65.78125 152.644531 65.78125 153.320312 66.46875 155.386719 L 74.648438 180.648438 L 76.816406 188.253906 L 79.183594 180.667969 L 87.53125 154.605469 C 88.277344 152.339844 88.457031 152.644531 91.289062 152.644531 L 96.578125 152.644531 C 98.839844 152.644531 98.8125 152.757812 99.425781 154.765625 L 110.007812 188.535156 L 120.648438 155.671875 C 121.828125 152.03125 121.75 152.644531 125.605469 152.644531 L 132.28125 152.644531 C 137.0625 152.644531 135.972656 153.21875 134.273438 157.757812 Z M 225.339844 157.757812 L 208.421875 202.394531 C 206.839844 206.855469 207.71875 206.324219 202.761719 206.324219 L 199.324219 206.324219 C 194.863281 206.324219 194.828125 206.855469 193.488281 202.527344 L 185.929688 178.273438 C 185.394531 176.464844 184.84375 174.6875 184.375 172.875 C 183.890625 174.730469 183.34375 176.570312 182.753906 178.390625 L 174.433594 204.046875 C 173.507812 206.878906 173.765625 206.324219 170.6875 206.324219 L 165.726562 206.324219 C 161.0625 206.324219 162.015625 206.421875 160.105469 201.644531 L 143.007812 154.792969 C 142.300781 152.773438 143.523438 152.644531 145.75 152.644531 L 154.640625 152.644531 C 156.882812 152.644531 156.851562 153.320312 157.546875 155.386719 L 165.726562 180.648438 L 167.894531 188.253906 L 170.273438 180.667969 L 178.613281 154.605469 C 179.375 152.339844 179.527344 152.644531 182.390625 152.644531 L 187.675781 152.644531 C 189.921875 152.644531 189.910156 152.757812 190.523438 154.765625 L 201.105469 188.535156 L 211.746094 155.671875 C 212.929688 152.03125 212.855469 152.644531 216.703125 152.644531 L 223.359375 152.644531 C 228.144531 152.644531 227.0625 153.21875 225.339844 157.757812 Z M 313.972656 157.757812 L 297.058594 202.394531 C 295.457031 206.855469 296.335938 206.324219 291.375 206.324219 L 287.964844 206.324219 C 283.503906 206.324219 283.476562 206.855469 282.117188 202.527344 L 274.5625 178.273438 C 274 176.492188 273.460938 174.6875 272.988281 172.875 C 272.5 174.730469 271.957031 176.570312 271.363281 178.390625 L 263.042969 204.046875 C 262.152344 206.878906 262.375 206.324219 259.300781 206.324219 L 254.371094 206.324219 C 249.707031 206.324219 250.652344 206.441406 248.71875 201.667969 L 231.648438 154.8125 C 230.910156 152.773438 232.164062 152.644531 234.363281 152.644531 L 243.25 152.644531 C 245.496094 152.644531 245.496094 153.320312 246.15625 155.414062 L 254.371094 180.65625 L 256.503906 188.261719 L 258.917969 180.671875 L 267.257812 154.613281 C 267.984375 152.371094 268.160156 152.652344 271 152.652344 L 276.292969 152.652344 C 278.566406 152.652344 278.519531 152.761719 279.152344 154.769531 L 289.722656 188.542969 L 300.386719 155.679688 C 301.535156 152.035156 301.464844 152.652344 305.347656 152.652344 L 312 152.652344 C 316.785156 152.644531 315.707031 153.21875 313.972656 157.757812 Z M 330.25 206.234375 C 325.921875 206.234375 322.417969 202.726562 322.417969 198.367188 C 322.417969 194.035156 325.921875 190.519531 330.25 190.519531 C 334.617188 190.519531 338.136719 194.035156 338.136719 198.367188 C 338.136719 202.734375 334.621094 206.234375 330.25 206.234375 Z M 330.25 206.234375 " fill-opacity="1" fill-rule="nonzero"/><path fill="#1e90ff" d="M 187.792969 286.148438 C 211.21875 286.148438 234 283.449219 255.105469 278.511719 C 258.28125 267.359375 260.96875 255.378906 263.03125 242.65625 L 112.558594 242.65625 C 114.621094 255.378906 117.316406 267.359375 120.492188 278.511719 C 141.597656 283.449219 164.371094 286.148438 187.792969 286.148438 Z M 187.792969 286.148438 " fill-opacity="1" fill-rule="nonzero"/><path fill="#1e90ff" d="M 41.242188 242.65625 C 58.433594 256.359375 80.839844 267.3125 106.304688 274.800781 C 103.6875 264.660156 101.441406 253.941406 99.679688 242.65625 Z M 41.242188 242.65625 " fill-opacity="1" fill-rule="nonzero"/><path fill="#1e90ff" d="M 269.285156 274.800781 C 294.753906 267.3125 317.167969 256.363281 334.347656 242.65625 L 275.90625 242.65625 C 274.140625 253.945312 271.902344 264.660156 269.285156 274.800781 Z M 269.285156 274.800781 " fill-opacity="1" fill-rule="nonzero"/><g clip-path="url(#id1)"><path fill="#1e90ff" d="M 250.667969 292.578125 C 230.6875 296.714844 209.476562 298.929688 187.792969 298.929688 C 166.117188 298.929688 144.90625 296.714844 124.925781 292.570312 C 139.925781 335.632812 163.078125 362.722656 187.792969 362.722656 C 212.523438 362.722656 235.679688 335.625 250.667969 292.578125 Z M 250.667969 292.578125 " fill-opacity="1" fill-rule="nonzero"/></g><path fill="#1e90ff" d="M 353.453125 242.65625 C 332.488281 263.511719 301.398438 279.585938 265.222656 289.105469 C 255.578125 319.800781 241.96875 343.816406 226 358.636719 C 286.890625 345.753906 337.28125 302.644531 358.757812 242.65625 Z M 353.453125 242.65625 " fill-opacity="1" fill-rule="nonzero"/><path fill="#1e90ff" d="M 149.601562 358.636719 C 133.621094 343.8125 120.023438 319.796875 110.367188 289.105469 C 74.207031 279.578125 43.105469 263.511719 22.125 242.65625 L 16.839844 242.65625 C 38.320312 302.652344 88.714844 345.761719 149.601562 358.636719 Z M 149.601562 358.636719 " fill-opacity="1" fill-rule="nonzero"/></svg>