<svg xmlns="http://www.w3.org/2000/svg" xmlns:xlink="http://www.w3.org/1999/xlink" width="500" zoomAndPan="magnify" viewBox="0 0 375 374.999991" height="500" preserveAspectRatio="xMidYMid meet" version="1.0"><path fill="#1e90ff" d="M 326.171875 86.777344 L 42.890625 86.777344 C 38.914062 86.777344 35.703125 83.558594 35.703125 79.589844 C 35.703125 75.621094 38.917969 72.40625 42.890625 72.40625 L 326.167969 72.40625 C 330.136719 72.40625 333.351562 75.621094 333.351562 79.589844 C 333.355469 83.558594 330.136719 86.777344 326.171875 86.777344 Z M 326.171875 86.777344 " fill-opacity="1" fill-rule="nonzero"/><path fill="#1e90ff" d="M 326.835938 302.613281 L 50.066406 302.613281 C 46.101562 302.613281 42.886719 299.398438 42.886719 295.433594 C 42.886719 291.460938 46.105469 288.242188 50.066406 288.242188 L 326.832031 288.242188 C 330.796875 288.242188 334.015625 291.460938 334.015625 295.433594 C 334.019531 299.398438 330.796875 302.613281 326.835938 302.613281 Z M 326.835938 302.613281 " fill-opacity="1" fill-rule="nonzero"/><path fill="#1e90ff" d="M 187.457031 375.085938 C 176.757812 375.085938 161.148438 367.828125 147.519531 333.253906 C 137.832031 308.65625 130.980469 275.398438 127.707031 237.085938 C 127.539062 235.078125 128.210938 233.097656 129.578125 231.613281 C 130.929688 230.132812 132.851562 229.292969 134.863281 229.292969 L 240.015625 229.292969 C 242.03125 229.292969 243.949219 230.132812 245.308594 231.613281 C 246.667969 233.097656 247.347656 235.078125 247.171875 237.085938 C 243.90625 275.40625 237.054688 308.664062 227.371094 333.253906 C 213.769531 367.828125 198.160156 375.085938 187.457031 375.085938 Z M 142.75 243.660156 C 146.109375 276.941406 152.488281 306.652344 160.890625 327.988281 C 169.089844 348.785156 178.769531 360.714844 187.457031 360.714844 C 196.148438 360.714844 205.820312 348.785156 214.011719 327.988281 C 222.40625 306.65625 228.78125 276.945312 232.140625 243.660156 Z M 240.039062 145.761719 C 240.035156 145.761719 240.027344 145.761719 240.019531 145.761719 L 134.867188 145.761719 C 132.855469 145.761719 130.9375 144.917969 129.582031 143.4375 C 128.214844 141.953125 127.542969 139.96875 127.710938 137.964844 C 130.980469 99.636719 137.835938 66.367188 147.527344 41.765625 C 161.144531 7.191406 176.757812 -0.0664062 187.460938 -0.0664062 C 198.164062 -0.0664062 213.78125 7.191406 227.386719 41.765625 C 237.027344 66.25 243.855469 99.320312 247.144531 137.441406 C 247.199219 137.808594 247.234375 138.1875 247.234375 138.570312 C 247.230469 142.546875 244.007812 145.761719 240.039062 145.761719 Z M 142.75 131.390625 L 232.140625 131.390625 C 228.785156 98.09375 222.40625 68.367188 214.011719 47.035156 C 205.828125 26.238281 196.148438 14.304688 187.457031 14.304688 C 178.769531 14.304688 169.089844 26.234375 160.890625 47.035156 C 152.488281 68.378906 146.109375 98.101562 142.75 131.390625 Z M 142.75 131.390625 " fill-opacity="1" fill-rule="nonzero"/><path fill="#1e90ff" d="M 187.457031 375.085938 C 156.191406 375.085938 126.707031 361.417969 102.199219 335.5625 C 78.898438 310.992188 61.734375 276.308594 53.863281 237.914062 C 53.429688 235.796875 53.964844 233.601562 55.339844 231.933594 C 56.695312 230.253906 58.75 229.289062 60.902344 229.289062 L 313.992188 229.289062 C 316.148438 229.289062 318.191406 230.253906 319.554688 231.933594 C 320.921875 233.601562 321.460938 235.800781 321.035156 237.914062 C 313.164062 276.304688 296 310.988281 272.703125 335.5625 C 248.191406 361.417969 218.710938 375.085938 187.457031 375.085938 Z M 69.890625 243.660156 C 86.988281 313.015625 134.421875 360.714844 187.457031 360.714844 C 240.472656 360.714844 287.90625 313.015625 305.003906 243.660156 Z M 314.003906 145.761719 C 314 145.761719 313.996094 145.761719 313.992188 145.761719 L 60.902344 145.761719 C 58.746094 145.761719 56.695312 144.792969 55.339844 143.117188 C 53.96875 141.441406 53.433594 139.246094 53.863281 137.132812 C 61.734375 98.722656 78.898438 64.039062 102.199219 39.457031 C 126.703125 13.605469 156.1875 -0.0625 187.457031 -0.0625 C 218.714844 -0.0625 248.191406 13.605469 272.699219 39.457031 C 295.890625 63.929688 313.003906 98.414062 320.921875 136.613281 C 321.101562 137.234375 321.195312 137.894531 321.195312 138.578125 C 321.199219 142.546875 317.980469 145.761719 314.003906 145.761719 Z M 69.890625 131.390625 L 305.003906 131.390625 C 287.910156 62.015625 240.480469 14.308594 187.457031 14.308594 C 134.421875 14.308594 86.984375 62.015625 69.890625 131.390625 Z M 69.890625 131.390625 " fill-opacity="1" fill-rule="nonzero"/><path fill="#1e90ff" d="M 62.929688 167.71875 L 68.253906 183.644531 L 68.359375 183.921875 C 69.148438 186.160156 69.644531 187.949219 69.859375 189.285156 C 70 188.519531 70.1875 187.722656 70.410156 186.890625 C 70.640625 186.054688 70.96875 184.988281 71.390625 183.679688 L 76.820312 167.71875 L 89.992188 167.71875 L 74.859375 203.785156 L 65.855469 203.785156 L 60.496094 187.460938 C 60.21875 186.535156 59.957031 185.601562 59.734375 184.660156 C 59.503906 183.714844 59.292969 182.785156 59.109375 181.855469 C 58.84375 183.285156 58.382812 185.085938 57.710938 187.246094 L 57.644531 187.5 L 52.320312 203.78125 L 43.320312 203.78125 L 28.253906 167.714844 L 41.359375 167.714844 L 46.75 183.671875 C 47.152344 184.839844 47.472656 185.859375 47.714844 186.730469 C 47.953125 187.597656 48.148438 188.445312 48.285156 189.285156 C 48.503906 188.09375 48.96875 186.441406 49.683594 184.320312 C 49.78125 184.035156 49.847656 183.820312 49.898438 183.679688 L 55.253906 167.71875 Z M 62.929688 167.71875 " fill-opacity="1" fill-rule="nonzero"/><path fill="#1e90ff" d="M 121.738281 167.71875 L 127.058594 183.644531 L 127.160156 183.921875 C 127.953125 186.160156 128.449219 187.949219 128.660156 189.285156 C 128.800781 188.519531 128.992188 187.722656 129.214844 186.890625 C 129.445312 186.054688 129.769531 184.988281 130.199219 183.679688 L 135.621094 167.71875 L 148.796875 167.71875 L 133.65625 203.785156 L 124.660156 203.785156 L 119.304688 187.460938 C 119.015625 186.535156 118.757812 185.601562 118.535156 184.660156 C 118.300781 183.714844 118.09375 182.785156 117.90625 181.855469 C 117.648438 183.285156 117.1875 185.085938 116.515625 187.246094 L 116.445312 187.5 L 111.121094 203.78125 L 102.128906 203.78125 L 87.050781 167.714844 L 100.164062 167.714844 L 105.550781 183.671875 C 105.957031 184.839844 106.28125 185.859375 106.515625 186.730469 C 106.757812 187.597656 106.949219 188.445312 107.09375 189.285156 C 107.304688 188.09375 107.769531 186.441406 108.484375 184.320312 C 108.578125 184.035156 108.648438 183.820312 108.695312 183.679688 L 114.050781 167.71875 Z M 121.738281 167.71875 " fill-opacity="1" fill-rule="nonzero"/><path fill="#1e90ff" d="M 180.550781 167.71875 L 185.863281 183.644531 L 185.972656 183.921875 C 186.761719 186.160156 187.261719 187.949219 187.472656 189.285156 C 187.613281 188.519531 187.796875 187.722656 188.027344 186.890625 C 188.253906 186.054688 188.578125 184.988281 189.007812 183.679688 L 194.433594 167.71875 L 207.605469 167.71875 L 192.464844 203.785156 L 183.46875 203.785156 L 178.113281 187.460938 C 177.832031 186.535156 177.578125 185.601562 177.34375 184.660156 C 177.113281 183.714844 176.90625 182.785156 176.714844 181.855469 C 176.457031 183.285156 175.996094 185.085938 175.332031 187.246094 L 175.253906 187.5 L 169.9375 203.78125 L 160.9375 203.78125 L 145.867188 167.714844 L 158.96875 167.714844 L 164.359375 183.671875 C 164.765625 184.839844 165.089844 185.859375 165.328125 186.730469 C 165.566406 187.597656 165.757812 188.445312 165.902344 189.285156 C 166.113281 188.09375 166.578125 186.441406 167.289062 184.320312 C 167.390625 184.035156 167.457031 183.820312 167.507812 183.679688 L 172.867188 167.71875 Z M 180.550781 167.71875 " fill-opacity="1" fill-rule="nonzero"/><path fill="#1e90ff" d="M 205.136719 197.921875 C 205.136719 195.902344 205.820312 194.199219 207.183594 192.816406 C 208.554688 191.441406 210.25 190.75 212.277344 190.75 C 214.34375 190.75 216.070312 191.441406 217.453125 192.816406 C 218.835938 194.199219 219.519531 195.902344 219.519531 197.921875 C 219.519531 199.949219 218.832031 201.660156 217.433594 203.066406 C 216.046875 204.472656 214.320312 205.171875 212.277344 205.171875 C 210.269531 205.171875 208.585938 204.472656 207.203125 203.066406 C 205.828125 201.660156 205.136719 199.949219 205.136719 197.921875 Z M 205.136719 197.921875 " fill-opacity="1" fill-rule="nonzero"/><path fill="#1e90ff" d="M 332.695312 206.992188 L 239.285156 206.992188 C 235.3125 206.992188 232.097656 203.777344 232.097656 199.808594 C 232.097656 195.839844 235.316406 192.621094 239.285156 192.621094 L 332.695312 192.621094 C 336.660156 192.621094 339.882812 195.839844 339.882812 199.808594 C 339.882812 203.777344 336.65625 206.992188 332.695312 206.992188 Z M 332.695312 206.992188 " fill-opacity="1" fill-rule="nonzero"/><path fill="#1e90ff" d="M 361.132812 243.660156 L 13.789062 243.660156 C 10.570312 243.660156 7.742188 241.515625 6.871094 238.414062 C 3.046875 224.8125 0.761719 210.761719 0.0898438 196.65625 C 0.0859375 196.542969 0.0859375 196.429688 0.0859375 196.3125 L 0.0859375 178.734375 C 0.0859375 178.617188 0.0859375 178.503906 0.09375 178.390625 C 0.761719 164.257812 3.046875 150.207031 6.882812 136.628906 C 7.75 133.53125 10.578125 131.390625 13.792969 131.390625 L 361.136719 131.390625 C 364.355469 131.390625 367.1875 133.535156 368.054688 136.636719 C 372.683594 153.132812 375.023438 170.25 375.023438 187.519531 C 375.023438 204.761719 372.683594 221.882812 368.054688 238.40625 C 367.179688 241.511719 364.347656 243.660156 361.132812 243.660156 Z M 19.328125 229.289062 L 355.589844 229.289062 C 358.945312 215.660156 360.644531 201.640625 360.644531 187.527344 C 360.644531 173.390625 358.945312 159.363281 355.59375 145.761719 L 19.328125 145.761719 C 16.632812 156.601562 15 167.722656 14.457031 178.90625 L 14.457031 196.140625 C 15 207.300781 16.632812 218.429688 19.328125 229.289062 Z M 19.328125 229.289062 " fill-opacity="1" fill-rule="nonzero"/><path fill="#1e90ff" d="M 187.457031 375.085938 C 137.351562 375.085938 90.25 355.578125 54.816406 320.152344 C 19.390625 284.734375 -0.128906 237.628906 -0.128906 187.527344 C -0.128906 84.089844 84.019531 -0.0625 187.457031 -0.0625 C 290.871094 -0.0625 375.015625 84.089844 375.015625 187.527344 C 375.015625 237.628906 355.507812 284.730469 320.089844 320.152344 C 284.664062 355.578125 237.558594 375.085938 187.457031 375.085938 Z M 187.457031 14.308594 C 91.945312 14.308594 14.246094 92.011719 14.246094 187.527344 C 14.246094 283.019531 91.945312 360.714844 187.457031 360.714844 C 282.953125 360.714844 360.644531 283.019531 360.644531 187.527344 C 360.644531 92.011719 282.953125 14.308594 187.457031 14.308594 Z M 187.457031 14.308594 " fill-opacity="1" fill-rule="nonzero"/></svg>