<svg xmlns="http://www.w3.org/2000/svg" xmlns:xlink="http://www.w3.org/1999/xlink" width="500" zoomAndPan="magnify" viewBox="0 0 375 374.999991" height="500" preserveAspectRatio="xMidYMid meet" version="1.0"><defs><clipPath id="id1"><path d="M 197.578125 0 L 374.929688 0 L 374.929688 255.609375 L 197.578125 255.609375 Z M 197.578125 0 " clip-rule="nonzero"/></clipPath><clipPath id="id2"><path d="M 0.0664062 0 L 177.496094 0 L 177.496094 255.609375 L 0.0664062 255.609375 Z M 0.0664062 0 " clip-rule="nonzero"/></clipPath></defs><g clip-path="url(#id1)"><path fill="#1e90ff" d="M 197.703125 255.609375 L 197.703125 93.378906 C 197.703125 76.519531 211.378906 62.855469 228.25 62.855469 L 339.171875 62.855469 L 374.929688 -0.140625 L 363.902344 74.113281 C 361.679688 89.074219 348.824219 100.152344 333.6875 100.152344 L 247.578125 100.152344 L 247.578125 211.417969 L 197.703125 255.609375 " fill-opacity="1" fill-rule="nonzero"/></g><g clip-path="url(#id2)"><path fill="#1e90ff" d="M 177.292969 255.609375 L 177.292969 93.378906 C 177.292969 76.519531 163.617188 62.855469 146.746094 62.855469 L 35.824219 62.855469 L 0.0664062 -0.140625 L 11.09375 74.113281 C 13.316406 89.074219 26.171875 100.152344 41.308594 100.152344 L 127.417969 100.152344 L 127.417969 211.417969 L 177.292969 255.609375 " fill-opacity="1" fill-rule="nonzero"/></g></svg>