<?xml version="1.0" standalone="no"?>
<!DOCTYPE svg PUBLIC "-//W3C//DTD SVG 20010904//EN"
 "http://www.w3.org/TR/2001/REC-SVG-20010904/DTD/svg10.dtd">
<svg version="1.0" xmlns="http://www.w3.org/2000/svg"
 width="1159.000000pt" height="206.000000pt" viewBox="0 0 1159.000000 206.000000"
 preserveAspectRatio="xMidYMid meet">
<metadata>
Created by potrace 1.16, written by Peter Selinger 2001-2019
</metadata>
<g transform="translate(0.000000,206.000000) scale(0.100000,-0.100000)"
fill="#000000" stroke="none">
<path d="M2730 725 l0 -635 134 0 135 0 3 35 3 34 44 -29 c162 -109 391 -63
500 101 57 85 66 119 66 244 -1 91 -5 120 -23 167 -28 71 -103 155 -169 190
-121 65 -291 58 -390 -18 l-33 -25 0 285 0 286 -135 0 -135 0 0 -635z m527
-107 c94 -56 105 -188 24 -269 -47 -47 -110 -60 -175 -35 -73 28 -106 78 -106
162 0 133 142 212 257 142z"/>
<path d="M4521 1303 c-18 -9 -44 -34 -58 -55 -22 -32 -25 -46 -21 -98 4 -49
10 -66 34 -91 56 -60 119 -73 188 -39 59 28 86 73 86 141 0 122 -119 196 -229
142z"/>
<path d="M90 1308 c1 -2 78 -275 173 -608 l173 -605 159 0 159 0 88 305 c48
168 90 316 94 330 6 22 73 -198 184 -602 l11 -38 157 0 158 0 168 593 c93 325
171 600 174 610 4 16 -8 17 -155 17 l-158 0 -100 -400 c-55 -220 -102 -400
-106 -400 -3 0 -53 179 -111 398 l-105 397 -111 3 c-62 1 -112 0 -112 -3 0 -4
-207 -788 -214 -810 -1 -5 -44 159 -95 365 -51 206 -96 392 -102 413 l-10 37
-159 0 c-88 0 -160 -1 -160 -2z"/>
<path d="M4940 990 l0 -140 -50 0 -50 0 0 -100 0 -100 49 0 49 0 4 -187 c4
-161 8 -196 27 -244 40 -104 104 -143 236 -144 91 0 195 25 195 47 0 9 -60
210 -65 216 -1 1 -16 -5 -33 -14 -69 -34 -92 16 -92 204 l0 122 80 0 80 0 0
100 0 100 -80 0 -80 0 0 140 0 140 -135 0 -135 0 0 -140z"/>
<path d="M2112 865 c-123 -27 -221 -106 -279 -223 -35 -71 -38 -81 -37 -166 1
-120 26 -185 101 -266 75 -81 169 -128 274 -136 159 -14 299 34 388 132 28 31
51 59 51 63 0 4 -45 29 -100 56 l-100 49 -32 -31 c-41 -40 -76 -53 -139 -53
-84 0 -145 43 -163 113 l-6 27 276 0 277 0 -6 86 c-14 194 -129 323 -318 353
-80 14 -108 13 -187 -4z m162 -179 c34 -14 76 -59 76 -82 0 -11 -28 -14 -135
-14 -74 0 -135 4 -135 9 0 4 10 23 23 42 35 52 107 72 171 45z"/>
<path d="M3975 871 c-125 -20 -213 -88 -235 -182 -32 -134 29 -221 206 -294
80 -33 104 -51 104 -76 0 -20 -36 -49 -60 -49 -33 0 -88 21 -144 55 -33 19
-60 34 -61 33 -1 -2 -25 -43 -54 -91 -62 -103 -61 -106 38 -151 165 -74 396
-56 499 38 80 72 92 226 25 314 -31 41 -109 87 -193 112 -100 30 -131 60 -95
90 22 18 116 13 174 -10 29 -11 56 -18 59 -16 4 2 25 41 47 85 28 59 36 84 28
92 -35 35 -242 65 -338 50z"/>
<path d="M5750 867 c-168 -38 -302 -178 -319 -335 -19 -177 59 -332 207 -410
130 -68 312 -68 449 2 44 22 153 125 153 145 0 3 -43 28 -96 54 l-95 48 -38
-30 c-49 -39 -82 -51 -138 -51 -84 0 -163 58 -163 119 0 21 3 21 270 21 l270
0 0 64 c0 83 -31 181 -74 238 -40 52 -116 104 -181 124 -68 20 -182 25 -245
11z m179 -195 c29 -21 59 -68 50 -77 -4 -3 -65 -4 -137 -3 l-131 3 16 34 c32
66 140 89 202 43z"/>
<path d="M9295 869 c-212 -35 -349 -175 -362 -368 -10 -148 51 -275 169 -352
74 -47 138 -68 238 -76 209 -16 394 76 468 235 24 51 27 69 27 167 0 106 -1
112 -34 172 -93 171 -291 258 -506 222z m182 -251 c90 -54 105 -188 29 -264
-109 -109 -286 -36 -286 119 0 136 141 215 257 145z"/>
<path d="M10395 871 c-48 -12 -97 -41 -137 -79 l-38 -36 0 47 0 47 -135 0
-135 0 0 -380 0 -380 134 0 135 0 3 217 c3 199 5 221 24 253 45 78 132 101
223 60 24 -11 44 -19 45 -18 1 2 25 51 54 111 28 59 52 110 52 113 0 3 -19 13
-42 24 -50 22 -140 32 -183 21z"/>
<path d="M10998 870 c-83 -14 -146 -40 -207 -85 -71 -52 -106 -96 -132 -167
-67 -174 -10 -363 140 -465 72 -50 138 -72 241 -80 208 -16 386 71 462 225 31
63 33 72 33 177 0 100 -3 115 -28 166 -82 168 -297 264 -509 229z m179 -252
c48 -29 77 -83 77 -143 0 -93 -61 -161 -150 -171 -57 -6 -125 23 -158 68 -26
37 -34 134 -13 174 48 93 157 125 244 72z"/>
<path d="M4460 470 l0 -380 135 0 135 0 0 380 0 380 -135 0 -135 0 0 -380z"/>
</g>
</svg>
